<?xml version="1.0" encoding="UTF-8"?>
<!DOCTYPE svg PUBLIC "-//W3C//DTD SVG 1.1//EN" "http://www.w3.org/Graphics/SVG/1.1/DTD/svg11.dtd">
<svg version="1.1" xmlns="http://www.w3.org/2000/svg" xmlns:xlink="http://www.w3.org/1999/xlink" x="0" y="0" width="1000" height="1000" viewBox="0, 0, 1000, 1000">
  <defs>
    <radialGradient id="Gradient_1" gradientUnits="userSpaceOnUse" cx="500" cy="500" r="1003.42">
      <stop offset="0" stop-color="#FFFFFF"/>
      <stop offset="0.602" stop-color="#C7C7C8"/>
      <stop offset="1" stop-color="#58595B"/>
    </radialGradient>
    <clipPath id="Clip_1">
      <path d="M0.06,0.04 L1000,0.04 L1000,1000 L0.06,1000 z"/>
    </clipPath>
    <clipPath id="Clip_2">
      <path d="M0.06,0.04 L1000,0.04 L1000,1000 L0.06,1000 z"/>
    </clipPath>
    <clipPath id="Clip_3">
      <path d="M0.06,0.04 L1000,0.04 L1000,1000 L0.06,1000 z"/>
    </clipPath>
    <clipPath id="Clip_4">
      <path d="M0.06,0.04 L1000,0.04 L1000,1000 L0.06,1000 z"/>
    </clipPath>
    <clipPath id="Clip_5">
      <path d="M0.06,0.04 L1000,0.04 L1000,1000 L0.06,1000 z"/>
    </clipPath>
    <clipPath id="Clip_6">
      <path d="M0.06,0.04 L1000,0.04 L1000,1000 L0.06,1000 z"/>
    </clipPath>
    <clipPath id="Clip_7">
      <path d="M0.06,0.04 L1000,0.04 L1000,1000 L0.06,1000 z"/>
    </clipPath>
    <clipPath id="Clip_8">
      <path d="M0.06,0.04 L1000,0.04 L1000,1000 L0.06,1000 z"/>
    </clipPath>
    <clipPath id="Clip_9">
      <path d="M0.06,0.04 L1000,0.04 L1000,1000 L0.06,1000 z"/>
    </clipPath>
  </defs>
  <g id="Layer_1">
    <path d="M0.06,0.04 L1000,0.04 L1000,1000 L0.06,1000 z" fill="url(#Gradient_1)"/>
    <path d="M1000,816.881 L901.971,641.446 L923.311,289.44 C929.05,311.926 962.623,443.412 1000,588.927 L1000,584.608 C959.82,428.162 924.308,288.999 923.503,285.844 L922.653,282.512 L900.887,641.538 L900.878,641.695 L1000,819.087 L1000,816.881" fill="#E9E9E9"/>
    <path d="M733.943,525.643 C732.217,532.713 725.08,537.047 718.001,535.323 C710.922,533.599 706.583,526.47 708.309,519.4 C710.035,512.331 717.173,507.997 724.251,509.72 C731.33,511.444 735.669,518.573 733.943,525.643" fill="#E9E9E9"/>
    <path d="M929.643,284.696 C928.608,288.938 924.325,291.539 920.078,290.504 C915.831,289.47 913.227,285.193 914.263,280.951 C915.298,276.709 919.581,274.109 923.828,275.143 C928.076,276.177 930.679,280.454 929.643,284.696" fill="#E9E9E9"/>
    <path d="M908.187,644.024 C907.151,648.266 902.868,650.866 898.621,649.832 C894.374,648.797 891.771,644.52 892.806,640.278 C893.842,636.036 898.124,633.436 902.371,634.47 C906.619,635.505 909.222,639.782 908.187,644.024" fill="#E9E9E9"/>
    <path d="M1000,877.084 L722.587,524.613 L721.742,525.276 L1000,878.822 L1000,877.084" fill="#E9E9E9"/>
    <path d="M1000,585.758 L968.1,460.638 L1000,488.988 L1000,487.55 L966.19,457.503 L1000,590.114 L1000,585.758" fill="#E9E9E9"/>
    <path d="M1000,917.936 L669.135,609.284 L803.178,541.956 L1000,848.986 L1000,846.994 L803.823,540.969 L803.561,540.561 L667.962,608.671 L667.272,609.017 L1000,919.407 L1000,917.936" fill="#E9E9E9"/>
    <path d="M1000,991.521 L691.534,904.139 L457.409,640.163 C492.324,660.867 823.064,856.95 1000,960.516 L1000,959.276 C814.238,850.533 459.768,640.313 454.999,637.484 L452.038,635.728 L690.834,904.969 L690.938,905.087 L1000,992.637 L1000,991.521" fill="#E9E9E9"/>
    <path d="M1000,901.293 L865.685,755.072 L1000,590.48 L1000,588.779 L864.557,754.753 L864.263,755.113 L1000,902.882 L1000,901.293" fill="#E9E9E9"/>
    <path d="M1000,927.055 L419.082,447.83 L600.73,383.964 L1000,881.704 L1000,879.985 L601.332,382.994 L601.093,382.697 L416.93,447.448 L1000,928.449 L1000,927.055" fill="#E9E9E9"/>
    <path d="M428.726,441.335 C432.511,447.553 430.532,455.659 424.307,459.439 C418.081,463.219 409.965,461.243 406.18,455.025 C402.395,448.807 404.374,440.701 410.6,436.921 C416.826,433.141 424.941,435.117 428.726,441.335" fill="#E9E9E9"/>
    <path d="M837.756,387.888 C841.541,394.106 839.562,402.212 833.336,405.992 C827.11,409.772 818.995,407.796 815.21,401.578 C811.425,395.36 813.404,387.254 819.63,383.474 C825.856,379.694 833.971,381.67 837.756,387.888" fill="#E9E9E9"/>
    <path d="M490.734,940.92 C494.519,947.138 492.541,955.243 486.315,959.023 C480.089,962.803 471.974,960.827 468.189,954.609 C464.404,948.391 466.382,940.286 472.608,936.505 C478.834,932.725 486.949,934.701 490.734,940.92" fill="#E9E9E9"/>
    <path d="M610.44,376.645 C613.77,382.117 612.029,389.25 606.55,392.576 C601.072,395.903 593.93,394.164 590.599,388.692 C587.269,383.22 589.01,376.087 594.489,372.761 C599.967,369.434 607.109,371.173 610.44,376.645" fill="#E9E9E9"/>
    <path d="M675.302,604.954 C677.573,608.685 676.386,613.548 672.65,615.816 C668.915,618.084 664.046,616.898 661.775,613.167 C659.504,609.437 660.691,604.573 664.427,602.305 C668.162,600.037 673.031,601.223 675.302,604.954" fill="#E9E9E9"/>
    <path d="M458.528,632.336 C460.799,636.067 459.612,640.93 455.876,643.198 C452.141,645.466 447.272,644.281 445.001,640.55 C442.73,636.819 443.917,631.956 447.652,629.688 C451.388,627.419 456.257,628.605 458.528,632.336" fill="#E9E9E9"/>
    <path d="M810.569,537.008 C812.84,540.739 811.653,545.602 807.917,547.87 C804.182,550.139 799.313,548.953 797.042,545.222 C794.771,541.491 795.958,536.628 799.693,534.36 C803.429,532.092 808.298,533.277 810.569,537.008" fill="#E9E9E9"/>
    <path d="M975.553,459.038 C977.824,462.768 976.636,467.632 972.901,469.9 C969.165,472.168 964.296,470.982 962.025,467.251 C959.754,463.521 960.941,458.657 964.677,456.389 C968.412,454.121 973.282,455.307 975.553,459.038" fill="#E9E9E9"/>
    <path d="M874.537,751.673 C876.808,755.404 875.621,760.267 871.886,762.535 C868.15,764.804 863.281,763.618 861.01,759.887 C858.739,756.156 859.926,751.293 863.662,749.025 C867.397,746.757 872.267,747.942 874.537,751.673" fill="#E9E9E9"/>
    <path d="M697.755,901.572 C700.026,905.303 698.839,910.166 695.103,912.434 C691.368,914.703 686.499,913.517 684.228,909.786 C681.957,906.055 683.144,901.192 686.879,898.924 C690.615,896.656 695.484,897.841 697.755,901.572" fill="#E9E9E9"/>
    <path d="M1000,774.224 L828.6,394.142 L827.62,394.583 L1000,776.841 L1000,774.224" fill="#E9E9E9"/>
    <path d="M904.497,998.756 L481.975,948.211 L481.847,949.278 L895.449,998.756 L904.497,998.756" fill="#E9E9E9"/>
    <path d="M1000,961.656 L608.706,729.483 L860.053,714.848 L1000,891.226 L1000,889.497 L860.723,713.962 L860.549,713.742 L605.135,728.615 L1000,962.907 L1000,961.656" fill="#E9E9E9"/>
    <path d="M518.101,998.756 L549.661,903.455 L984.723,998.756 L989.745,998.756 L549.418,902.302 L548.944,902.199 L516.968,998.756 L518.101,998.756" fill="#E9E9E9"/>
    <path d="M1000,936.231 L583.923,591.114 L730.343,626.609 L1000,913.094 L1000,911.526 L731.017,625.756 L730.908,625.639 L579.661,588.974 L1000,937.627 L1000,936.231" fill="#E9E9E9"/>
    <path d="M1000,945.882 L1000,944.545 L715.5,734.007 L742.513,998.756 L743.595,998.756 L716.816,736.319 L1000,945.882" fill="#E9E9E9"/>
    <path d="M263.92,998.756 L294.651,934.712 L875.524,998.756 L885.332,998.756 L294.39,933.602 L294.011,933.561 L262.727,998.756 L263.92,998.756" fill="#E9E9E9"/>
    <path d="M465.033,770.094 C472.111,771.818 476.451,778.947 474.725,786.016 C472.999,793.086 465.861,797.42 458.782,795.696 C451.704,793.973 447.364,786.844 449.09,779.774 C450.816,772.704 457.954,768.37 465.033,770.094" fill="#E9E9E9"/>
    <path d="M296.336,922.681 C302.565,924.198 306.383,930.471 304.865,936.693 C303.346,942.914 297.065,946.728 290.835,945.211 C284.606,943.694 280.788,937.421 282.306,931.199 C283.825,924.978 290.107,921.164 296.336,922.681" fill="#E9E9E9"/>
    <path d="M551.384,894.738 C555.631,895.772 558.234,900.049 557.199,904.291 C556.163,908.533 551.881,911.134 547.633,910.099 C543.386,909.065 540.783,904.788 541.818,900.546 C542.854,896.304 547.136,893.704 551.384,894.738" fill="#E9E9E9"/>
    <path d="M612.842,723.089 C617.09,724.123 619.693,728.4 618.658,732.642 C617.622,736.884 613.34,739.484 609.092,738.45 C604.845,737.416 602.242,733.138 603.277,728.896 C604.313,724.654 608.595,722.054 612.842,723.089" fill="#E9E9E9"/>
    <path d="M720.78,730.387 C725.027,731.421 727.631,735.698 726.595,739.94 C725.56,744.182 721.277,746.782 717.03,745.748 C712.783,744.714 710.179,740.437 711.215,736.195 C712.25,731.953 716.533,729.352 720.78,730.387" fill="#E9E9E9"/>
    <path d="M584.648,584.94 C588.895,585.974 591.499,590.252 590.463,594.494 C589.428,598.735 585.145,601.336 580.898,600.302 C576.651,599.267 574.047,594.99 575.083,590.748 C576.118,586.506 580.401,583.906 584.648,584.94" fill="#E9E9E9"/>
    <path d="M733.314,618.974 C737.561,620.008 740.165,624.285 739.129,628.527 C738.094,632.769 733.811,635.37 729.564,634.335 C725.316,633.301 722.713,629.024 723.749,624.782 C724.784,620.54 729.067,617.94 733.314,618.974" fill="#E9E9E9"/>
    <path d="M862.176,706.614 C866.424,707.649 869.027,711.926 867.992,716.168 C866.956,720.41 862.673,723.01 858.426,721.976 C854.179,720.941 851.575,716.664 852.611,712.422 C853.647,708.18 857.929,705.58 862.176,706.614" fill="#E9E9E9"/>
    <path d="M1000,984.223 L462.985,780.982 L462.605,781.986 L1000,985.373 L1000,984.223" fill="#E9E9E9"/>
    <path d="M700.771,998.756 L713.472,984.5 L836.752,998.756 L846.104,998.756 L713.318,983.401 L713.041,983.368 L699.331,998.756 L700.771,998.756" fill="#E9E9E9"/>
    <path d="M709.145,977.178 C712.88,974.91 717.749,976.096 720.02,979.827 C722.291,983.558 721.104,988.421 717.369,990.689 C713.633,992.957 708.764,991.771 706.493,988.041 C704.222,984.31 705.409,979.446 709.145,977.178" fill="#E9E9E9"/>
    <path d="M1000,523.954 L922.347,340.137 L922.217,340.048 L633.363,141.815 C633.385,142.129 633.413,142.443 633.413,142.762 C633.413,142.889 633.396,143.013 633.393,143.139 L921.477,340.844 L999.675,525.949 L1000,526.202 L1000,523.954" fill="#E9E9E9"/>
    <path d="M933.412,137.298 C940.055,140.287 947.867,137.332 950.86,130.697 C953.853,124.063 950.894,116.261 944.252,113.271 C937.609,110.282 929.797,113.237 926.804,119.871 C923.811,126.506 926.769,134.308 933.412,137.298" fill="#E9E9E9"/>
    <path d="M624.826,144.531 C628.812,146.325 633.499,144.552 635.295,140.572 C637.091,136.591 635.316,131.91 631.33,130.116 C627.344,128.322 622.657,130.095 620.862,134.076 C619.066,138.057 620.841,142.738 624.826,144.531" fill="#E9E9E9"/>
    <path d="M919.689,347.324 C923.675,349.118 928.362,347.345 930.158,343.365 C931.954,339.384 930.179,334.703 926.193,332.909 C922.207,331.115 917.52,332.888 915.724,336.869 C913.928,340.85 915.704,345.531 919.689,347.324" fill="#E9E9E9"/>
    <path d="M1000,367.595 L940.628,127.463 L939.584,127.721 L1000,372.075 L1000,367.595" fill="#E9E9E9"/>
    <path d="M737.766,278.272 L738.176,284.603 C738.573,284.902 738.953,285.22 739.316,285.558 L739.066,281.705 L818.218,383.786 L821.657,386.465 L737.766,278.272" fill="#E9E9E9"/>
    <path d="M1000,474.784 L903.704,201.852 L1000,156.303 L1000,155.114 L902.368,201.296 L902.529,201.753 L1000,478.017 L1000,474.784" fill="#E9E9E9"/>
    <g clip-path="url(#Clip_1)">
      <path d="M1000,381.8 L819.603,385.644 L820.946,386.69 L1000,382.875 L1000,381.8" fill="#E9E9E9"/>
      <path d="M1000,352.661 L916.267,-0 L915.161,-0 L1000,357.32 L1000,352.661" fill="#E9E9E9"/>
    </g>
    <path d="M761.809,134.314 C764.39,141.12 772.006,144.547 778.819,141.969 C785.633,139.392 789.065,131.786 786.484,124.98 C783.904,118.175 776.288,114.748 769.474,117.325 C762.66,119.903 759.229,127.509 761.809,134.314" fill="#E9E9E9"/>
    <path d="M896.252,204.629 C897.801,208.712 902.37,210.768 906.458,209.222 C910.547,207.675 912.606,203.111 911.057,199.028 C909.509,194.945 904.939,192.889 900.851,194.435 C896.763,195.982 894.704,200.545 896.252,204.629" fill="#E9E9E9"/>
    <path d="M733.219,286.589 C734.767,290.672 739.336,292.728 743.425,291.182 C747.513,289.635 749.572,285.072 748.023,280.989 C746.475,276.905 741.906,274.849 737.817,276.396 C733.729,277.942 731.67,282.506 733.219,286.589" fill="#E9E9E9"/>
    <path d="M1000,820.283 C889.914,642.219 700.011,338.391 679.286,305.24 L948.761,533.112 L1000,699.291 L1000,695.64 L949.696,532.495 L949.576,532.394 L674.727,299.977 L676.55,302.893 C679.398,307.446 884.458,635.419 1000,822.319 L1000,820.283" fill="#E9E9E9"/>
    <path d="M671.476,306.533 C675.262,308.717 680.103,307.422 682.29,303.642 C684.477,299.861 683.181,295.026 679.396,292.841 C675.61,290.657 670.769,291.952 668.582,295.732 C666.395,299.513 667.691,304.348 671.476,306.533" fill="#E9E9E9"/>
    <path d="M946.331,539.381 C950.116,541.565 954.957,540.271 957.144,536.49 C959.331,532.71 958.035,527.874 954.25,525.69 C950.464,523.506 945.623,524.8 943.436,528.581 C941.249,532.361 942.545,537.197 946.331,539.381" fill="#E9E9E9"/>
    <path d="M944.393,454.572 L773.329,130.45 L772.378,130.951 L943.498,455.18 C943.789,454.966 944.087,454.764 944.393,454.572" fill="#E9E9E9"/>
    <path d="M287.831,850.927 C296.197,844.813 298.016,833.085 291.896,824.73 C285.775,816.375 274.032,814.558 265.667,820.671 C257.301,826.784 255.482,838.512 261.602,846.867 C267.723,855.222 279.466,857.039 287.831,850.927" fill="#E9E9E9"/>
    <path d="M863.149,1000 L280.296,836.579 L280.709,835.107 L851.258,995.078 L863.149,1000" fill="#E9E9E9"/>
    <path d="M358.317,899.356 L920.61,998.756 L926.785,998.756 L358.88,898.364 L358.398,895.415 C358.062,895.562 357.722,895.701 357.375,895.824 L357.941,899.288 L358.317,899.356" fill="#E9E9E9"/>
    <path d="M357.108,910.383 C363.513,910.677 368.944,905.73 369.239,899.333 C369.533,892.936 364.58,887.511 358.175,887.217 C351.77,886.923 346.339,891.87 346.044,898.267 C345.75,904.664 350.703,910.088 357.108,910.383" fill="#E9E9E9"/>
    <path d="M989.539,998.756 L993.06,998.756 L325.383,696.944 L325.738,692.929 C325.249,693.009 324.759,693.078 324.264,693.122 L323.848,697.84 L324.316,698.053 L989.539,998.756" fill="#E9E9E9"/>
    <path d="M319.053,712.065 C327.328,714.584 336.08,709.926 338.601,701.662 C341.123,693.397 336.459,684.656 328.184,682.138 C319.91,679.619 311.158,684.277 308.636,692.542 C306.115,700.806 310.778,709.547 319.053,712.065" fill="#E9E9E9"/>
    <path d="M183.056,998.756 L201.51,937.066 L528.279,998.756 L534.071,998.756 L201.234,935.921 L200.757,935.832 L181.934,998.756 L183.056,998.756" fill="#E9E9E9"/>
    <path d="M202.979,928.303 C207.254,929.214 209.981,933.413 209.07,937.683 C208.158,941.954 203.953,944.677 199.677,943.767 C195.402,942.856 192.675,938.656 193.586,934.386 C194.498,930.116 198.703,927.393 202.979,928.303" fill="#E9E9E9"/>
    <path d="M1000,346.427 C998.906,347.211 997.994,348.278 997.401,349.592 C995.826,353.083 996.999,357.113 1000,359.261 L1000,346.427" fill="#E9E9E9"/>
    <path d="M842.317,54.254 C844.471,61.206 851.861,65.096 858.821,62.944 C865.781,60.792 869.676,53.412 867.522,46.461 C865.367,39.509 857.978,35.618 851.018,37.77 C844.057,39.923 840.162,47.302 842.317,54.254" fill="#E9E9E9"/>
    <path d="M1000,374.654 L854.053,51.108 L853.073,51.549 L1000,377.271 L1000,374.654" fill="#E9E9E9"/>
    <path d="M402.406,678.719 C407.229,683.467 407.285,691.222 402.53,696.039 C397.776,700.856 390.012,700.912 385.189,696.163 C380.365,691.414 380.31,683.66 385.064,678.843 C389.819,674.026 397.583,673.97 402.406,678.719" fill="#9C9CA0"/>
    <path d="M1000,514.992 L997.436,506.101 L1000,506.289 L1000,505.287 L996.794,505.053 L996.079,505.001 L1000,518.599 L1000,514.992" fill="#9C9CA0"/>
    <path d="M1000,885.166 L874.435,751.984 L813.79,429.83 C826.56,453.404 916.269,618.976 1000,772.709 L1000,770.623 C910.702,606.66 814.921,429.82 813.147,426.545 L811.625,423.733 L873.479,752.312 L873.506,752.456 L1000,886.623 L1000,885.166" fill="#9C9CA0"/>
    <path d="M1000,609.275 L875.106,258.141 L1000,283.504 L1000,282.484 L873.571,256.81 L1000,612.26 L1000,609.275" fill="#9C9CA0"/>
    <path d="M885.902,257.556 C885.951,264.32 880.5,269.842 873.727,269.891 C866.955,269.939 861.425,264.495 861.377,257.731 C861.328,250.967 866.779,245.444 873.552,245.396 C880.324,245.348 885.853,250.792 885.902,257.556" fill="#9C9CA0"/>
    <path d="M696.683,685.627 C696.732,692.391 691.281,697.914 684.508,697.963 C677.736,698.011 672.206,692.567 672.158,685.803 C672.11,679.039 677.56,673.516 684.333,673.468 C691.105,673.419 696.635,678.864 696.683,685.627" fill="#9C9CA0"/>
    <path d="M1000,498.903 C999.085,498.505 998.077,498.283 997.015,498.291 C992.952,498.32 989.681,501.633 989.711,505.692 C989.74,509.75 993.057,513.017 997.121,512.988 C998.144,512.98 999.117,512.764 1000,512.38 L1000,498.903" fill="#9C9CA0"/>
    <path d="M818.422,424.12 C818.451,428.179 815.18,431.492 811.117,431.521 C807.054,431.551 803.736,428.284 803.707,424.226 C803.678,420.167 806.948,416.854 811.012,416.825 C815.075,416.796 818.393,420.062 818.422,424.12" fill="#9C9CA0"/>
    <path d="M880.623,752.901 C880.652,756.959 877.382,760.273 873.318,760.302 C869.255,760.331 865.937,757.065 865.908,753.006 C865.879,748.948 869.149,745.634 873.213,745.605 C877.276,745.576 880.594,748.842 880.623,752.901" fill="#9C9CA0"/>
    <path d="M1000,929.64 L686.211,687.269 L685.6,688.059 L1000,930.902 L1000,929.64" fill="#9C9CA0"/>
    <path d="M1000,771.642 L893.017,574.021 L1000,629.763 L1000,628.636 L892.032,572.381 L890.584,571.627 L1000,773.744 L1000,771.642" fill="#9C9CA0"/>
    <path d="M1000,964.934 L657.242,775.698 L762.798,684.66 L1000,907.577 L1000,906.205 L763.156,683.625 L762.828,683.316 L656.045,775.411 L655.502,775.88 L1000,966.075 L1000,964.934" fill="#9C9CA0"/>
    <path d="M689.155,998.756 L473.383,851.463 C505.674,861.068 782.189,943.295 971.354,998.756 L974.892,998.756 C775.281,940.243 475.068,850.922 470.603,849.594 L467.536,848.682 L687.383,998.756 L689.155,998.756" fill="#9C9CA0"/>
    <path d="M1000,623.79 L939.356,451.833 L1000,511.415 L1000,510.014 L936.977,448.095 L1000,626.797 L1000,623.79" fill="#9C9CA0"/>
    <path d="M1000,949.725 L867.509,862.628 L975.991,630.997 L1000,688.67 L1000,686.067 L976.045,628.525 L866.42,862.596 L866.238,862.987 L1000,950.92 L1000,949.725" fill="#9C9CA0"/>
    <path d="M1000,974.138 L395.187,686.757 L544.443,588.063 L1000,933.249 L1000,931.995 L544.764,587.053 L544.482,586.84 L393.159,686.9 L1000,975.243 L1000,974.138" fill="#9C9CA0"/>
    <path d="M759.006,537.946 C763.829,542.694 763.885,550.449 759.13,555.266 C754.375,560.083 746.611,560.139 741.788,555.39 C736.965,550.641 736.909,542.887 741.664,538.07 C746.418,533.253 754.183,533.197 759.006,537.946" fill="#9C9CA0"/>
    <path d="M551.535,579.268 C555.78,583.447 555.828,590.271 551.644,594.51 C547.461,598.749 540.628,598.798 536.384,594.619 C532.139,590.44 532.09,583.616 536.274,579.377 C540.458,575.138 547.291,575.089 551.535,579.268" fill="#9C9CA0"/>
    <path d="M661.818,770.398 C664.712,773.248 664.745,777.901 661.893,780.791 C659.04,783.681 654.381,783.714 651.487,780.865 C648.594,778.016 648.56,773.363 651.413,770.473 C654.266,767.583 658.924,767.549 661.818,770.398" fill="#9C9CA0"/>
    <path d="M472.616,844.154 C475.51,847.003 475.544,851.656 472.691,854.546 C469.838,857.437 465.18,857.47 462.286,854.621 C459.392,851.772 459.359,847.119 462.211,844.229 C465.064,841.338 469.723,841.305 472.616,844.154" fill="#9C9CA0"/>
    <path d="M768.338,678.527 C771.232,681.376 771.265,686.029 768.413,688.919 C765.56,691.81 760.901,691.843 758.007,688.994 C755.114,686.145 755.08,681.492 757.933,678.602 C760.786,675.711 765.444,675.678 768.338,678.527" fill="#9C9CA0"/>
    <path d="M899.372,570.891 C902.266,573.741 902.299,578.393 899.446,581.284 C896.594,584.174 891.935,584.207 889.041,581.358 C886.147,578.509 886.114,573.856 888.967,570.966 C891.819,568.076 896.478,568.042 899.372,570.891" fill="#9C9CA0"/>
    <path d="M981.987,628.154 C984.881,631.003 984.914,635.656 982.062,638.546 C979.209,641.436 974.55,641.469 971.657,638.62 C968.763,635.771 968.729,631.118 971.582,628.228 C974.435,625.338 979.093,625.305 981.987,628.154" fill="#9C9CA0"/>
    <path d="M874.719,857.561 C877.613,860.41 877.646,865.063 874.793,867.953 C871.941,870.843 867.282,870.877 864.388,868.028 C861.494,865.178 861.461,860.526 864.314,857.635 C867.166,854.745 871.825,854.712 874.719,857.561" fill="#9C9CA0"/>
    <path d="M942.883,447.253 C945.777,450.103 945.81,454.755 942.958,457.646 C940.105,460.536 935.446,460.569 932.553,457.72 C929.659,454.871 929.625,450.218 932.478,447.328 C935.331,444.437 939.989,444.404 942.883,447.253" fill="#9C9CA0"/>
    <path d="M1000,858.402 L752.172,545.655 L751.387,546.275 L1000,860.012 L1000,858.402" fill="#9C9CA0"/>
    <path d="M853.305,827.642 L1000,940.031 L1000,938.773 L853.708,826.692 L853.501,826.534 L626.628,897.759 L965.818,998.756 L969.318,998.756 L630.044,897.734 L853.305,827.642" fill="#9C9CA0"/>
    <path d="M1000,981.322 L576.302,778.608 L716.35,777.46 L1000,959.024 L1000,957.838 L716.764,776.539 L716.639,776.459 L571.974,777.644 L1000,982.43 L1000,981.322" fill="#9C9CA0"/>
    <path d="M1000,991.09 L1000,990.01 L728.388,878.069 L727.341,877.637 L771.317,998.756 L772.381,998.756 L729.054,879.424 L1000,991.09" fill="#9C9CA0"/>
    <path d="M509.742,966.867 C516.515,966.818 522.044,972.262 522.093,979.026 C522.141,985.79 516.69,991.313 509.918,991.361 C503.145,991.41 497.616,985.966 497.568,979.202 C497.519,972.438 502.97,966.915 509.742,966.867" fill="#9C9CA0"/>
    <path d="M632.321,891.033 C636.385,891.003 639.703,894.27 639.732,898.328 C639.761,902.387 636.49,905.7 632.427,905.729 C628.363,905.758 625.046,902.492 625.017,898.434 C624.987,894.375 628.258,891.062 632.321,891.033" fill="#9C9CA0"/>
    <path d="M731.28,873.178 C735.344,873.149 738.661,876.415 738.69,880.474 C738.72,884.532 735.449,887.846 731.386,887.875 C727.322,887.904 724.004,884.637 723.975,880.579 C723.946,876.521 727.217,873.207 731.28,873.178" fill="#9C9CA0"/>
    <path d="M575.554,772.878 C579.618,772.849 582.935,776.116 582.964,780.174 C582.994,784.232 579.723,787.546 575.66,787.575 C571.596,787.604 568.279,784.338 568.249,780.279 C568.22,776.221 571.491,772.907 575.554,772.878" fill="#9C9CA0"/>
    <path d="M717.296,769.905 C721.359,769.876 724.677,773.142 724.706,777.201 C724.735,781.259 721.464,784.573 717.401,784.602 C713.338,784.631 710.02,781.365 709.991,777.306 C709.962,773.248 713.232,769.934 717.296,769.905" fill="#9C9CA0"/>
    <path d="M853.35,819.74 C857.414,819.711 860.731,822.977 860.76,827.036 C860.789,831.094 857.519,834.408 853.456,834.437 C849.392,834.466 846.074,831.199 846.045,827.141 C846.016,823.082 849.287,819.769 853.35,819.74" fill="#9C9CA0"/>
    <path d="M696.23,998.756 L510.368,977.145 L510.253,978.138 L687.576,998.756 L696.23,998.756" fill="#9C9CA0"/>
    <path d="M267.689,998.756 L302.029,935.216 L701.334,998.756 L709.627,998.756 L301.778,933.856 L301.32,933.783 L266.206,998.756 L267.689,998.756" fill="#9C9CA0"/>
    <path d="M303.672,925.622 C308.483,927.041 311.232,932.087 309.81,936.892 C308.389,941.697 303.337,944.442 298.526,943.022 C293.715,941.603 290.967,936.557 292.388,931.752 C293.809,926.947 298.861,924.203 303.672,925.622" fill="#9C9CA0"/>
    <path d="M498.186,998.756 L252.924,851.698 C305.372,863.998 653.466,945.585 884.574,998.756 L892.681,998.756 C644.754,941.742 253.408,849.962 247.72,848.628 L242.102,847.311 L494.682,998.756 L498.186,998.756" fill="#9C9CA0"/>
    <g clip-path="url(#Clip_2)">
      <path d="M249.723,842.11 C253.469,845.387 253.846,851.076 250.565,854.817 C247.284,858.558 241.587,858.935 237.842,855.658 C234.096,852.381 233.719,846.691 237,842.95 C240.281,839.209 245.977,838.833 249.723,842.11" fill="#9C9CA0"/>
      <path d="M0,147.404 L0,149.108 L58.417,253.783 L41.95,525.743 C38.43,511.937 21.344,444.934 0,361.575 L0,364.92 C23.277,455.837 41.299,526.55 41.801,528.522 L42.458,531.096 L59.253,253.711 L59.26,253.59 L0,147.404" fill="#E9E9E9"/>
    </g>
    <path d="M188.074,343.252 C189.406,337.79 194.913,334.442 200.376,335.774 C205.838,337.105 209.186,342.613 207.854,348.075 C206.523,353.538 201.015,356.886 195.553,355.554 C190.09,354.222 186.742,348.715 188.074,343.252" fill="#E9E9E9"/>
    <path d="M37.064,529.409 C37.863,526.131 41.167,524.122 44.444,524.921 C47.722,525.72 49.731,529.025 48.932,532.302 C48.133,535.58 44.828,537.589 41.551,536.789 C38.273,535.99 36.264,532.686 37.064,529.409" fill="#E9E9E9"/>
    <g clip-path="url(#Clip_3)">
      <path d="M53.62,251.791 C54.42,248.514 57.724,246.505 61.001,247.304 C64.279,248.103 66.288,251.407 65.489,254.685 C64.69,257.962 61.385,259.971 58.108,259.172 C54.83,258.373 52.821,255.068 53.62,251.791" fill="#E9E9E9"/>
      <path d="M0,92.3 L0,93.642 L196.837,344.048 L197.489,343.536 L0,92.3" fill="#E9E9E9"/>
      <path d="M0,361.093 L0,364.459 L7.389,393.475 L0,386.901 L0,388.012 L8.863,395.897 L0,361.093" fill="#E9E9E9"/>
      <path d="M-0,55.119 L-0,56.255 L238.083,278.63 L134.649,330.648 L-0,120.342 L-0,121.881 L134.152,331.411 L134.354,331.726 L238.988,279.104 L239.52,278.837 L-0,55.119" fill="#E9E9E9"/>
      <path d="M221.339,50.183 L221.259,50.092 L44.648,-0 L41.605,-0 L220.799,50.825 L401.46,254.774 C375.614,239.428 139.689,99.384 -0,17.373 L-0,18.332 C146.908,104.588 399.782,254.742 403.32,256.844 L405.604,258.2 L221.339,50.183" fill="#E9E9E9"/>
      <path d="M0,70.573 L0,71.801 L86.416,165.995 L0,272.023 L0,273.337 L87.287,166.241 L87.514,165.963 L0,70.573" fill="#E9E9E9"/>
      <path d="M-0,46.272 L-0,47.349 L429.949,402.474 C430.676,402.642 431.384,402.868 432.067,403.147 L-0,46.272" fill="#E9E9E9"/>
      <path d="M0,89.66 L0,90.988 L290.003,452.965 C289.988,452.53 289.991,452.092 290.016,451.652 L0,89.66" fill="#E9E9E9"/>
    </g>
    <path d="M423.593,408.389 C420.672,403.584 422.199,397.322 427.003,394.402 C431.807,391.481 438.069,393.008 440.99,397.812 C443.91,402.616 442.384,408.878 437.579,411.799 C432.775,414.72 426.513,413.193 423.593,408.389" fill="#E9E9E9"/>
    <path d="M107.968,449.682 C105.047,444.878 106.574,438.616 111.378,435.695 C116.182,432.774 122.444,434.301 125.365,439.105 C128.286,443.909 126.759,450.172 121.955,453.092 C117.15,456.013 110.888,454.486 107.968,449.682" fill="#E9E9E9"/>
    <path d="M375.744,22.408 C372.824,17.604 374.351,11.342 379.155,8.421 C383.959,5.5 390.221,7.027 393.142,11.832 C396.062,16.636 394.535,22.898 389.731,25.818 C384.927,28.739 378.665,27.212 375.744,22.408" fill="#E9E9E9"/>
    <path d="M283.375,458.368 C280.805,454.141 282.148,448.63 286.376,446.06 C290.603,443.49 296.114,444.833 298.684,449.061 C301.254,453.289 299.911,458.799 295.683,461.37 C291.456,463.94 285.945,462.596 283.375,458.368" fill="#E9E9E9"/>
    <path d="M233.324,281.976 C231.572,279.094 232.488,275.337 235.37,273.584 C238.253,271.832 242.01,272.748 243.762,275.63 C245.515,278.513 244.599,282.27 241.716,284.023 C238.834,285.775 235.076,284.859 233.324,281.976" fill="#E9E9E9"/>
    <path d="M400.596,260.821 C398.844,257.938 399.76,254.181 402.642,252.429 C405.525,250.676 409.282,251.592 411.034,254.475 C412.787,257.357 411.871,261.115 408.988,262.867 C406.106,264.619 402.348,263.703 400.596,260.821" fill="#E9E9E9"/>
    <g>
      <path d="M128.946,334.471 C127.194,331.589 128.11,327.832 130.993,326.079 C133.875,324.327 137.632,325.243 139.385,328.125 C141.137,331.008 140.221,334.765 137.339,336.517 C134.456,338.27 130.699,337.354 128.946,334.471" fill="#E9E9E9"/>
      <path d="M1.638,394.712 C-0.114,391.829 0.802,388.072 3.684,386.319 C6.567,384.567 10.324,385.483 12.076,388.366 C13.829,391.248 12.913,395.005 10.03,396.758 C7.148,398.51 3.39,397.594 1.638,394.712" fill="#E9E9E9"/>
    </g>
    <path d="M79.586,168.62 C77.833,165.738 78.749,161.981 81.632,160.228 C84.514,158.476 88.272,159.392 90.024,162.274 C91.776,165.157 90.86,168.914 87.978,170.667 C85.095,172.419 81.338,171.503 79.586,168.62" fill="#E9E9E9"/>
    <g clip-path="url(#Clip_4)">
      <path d="M215.998,52.808 C214.246,49.926 215.162,46.168 218.045,44.416 C220.927,42.663 224.684,43.58 226.437,46.462 C228.189,49.344 227.273,53.102 224.391,54.854 C221.508,56.607 217.751,55.69 215.998,52.808" fill="#E9E9E9"/>
      <path d="M-0,187.424 L-0,189.445 L115.033,444.85 L115.789,444.51 L-0,187.424" fill="#E9E9E9"/>
      <path d="M242.454,0 L382.504,16.775 L382.602,15.95 L249.435,0 L242.454,0" fill="#E9E9E9"/>
      <path d="M0,15.655 L0,16.621 L284.713,185.764 L90.762,197.072 L0,82.539 L0,83.876 L90.245,197.756 L90.379,197.926 L287.468,186.435 L0,15.655" fill="#E9E9E9"/>
      <path d="M347.259,-0 L330.274,51.353 L96.132,-0 L92.257,-0 L330.462,52.244 L330.827,52.324 L348.133,-0 L347.259,-0" fill="#E9E9E9"/>
      <path d="M0,39.258 L0,40.337 L303.836,292.669 L190.852,265.246 L0,62.23 L0,63.442 L190.332,265.904 L190.416,265.995 L307.125,294.323 L0,39.258" fill="#E9E9E9"/>
      <path d="M183.731,0 L182.897,0 L201.29,180.483 L0,31.338 L0,32.371 L201.551,181.71 L202.306,182.269 L183.731,0" fill="#E9E9E9"/>
      <path d="M540.088,-0 L527.05,27.204 L280.62,-0 L273.053,-0 L527.252,28.061 L527.545,28.093 L541.008,-0 L540.088,-0" fill="#E9E9E9"/>
    </g>
    <path d="M395.577,154.388 C390.115,153.057 386.766,147.549 388.098,142.087 C389.43,136.624 394.938,133.276 400.4,134.608 C405.862,135.94 409.21,141.447 407.879,146.91 C406.547,152.372 401.039,155.72 395.577,154.388" fill="#E9E9E9"/>
    <path d="M525.751,36.499 C520.944,35.327 517.997,30.48 519.169,25.674 C520.341,20.867 525.188,17.92 529.995,19.093 C534.802,20.264 537.748,25.111 536.576,29.918 C535.404,34.725 530.557,37.671 525.751,36.499" fill="#E9E9E9"/>
    <path d="M328.945,58.088 C325.667,57.289 323.658,53.984 324.458,50.707 C325.257,47.43 328.561,45.421 331.839,46.22 C335.116,47.019 337.125,50.323 336.326,53.601 C335.527,56.878 332.222,58.887 328.945,58.088" fill="#E9E9E9"/>
    <path d="M281.521,190.705 C278.243,189.906 276.234,186.601 277.033,183.324 C277.832,180.047 281.137,178.038 284.414,178.837 C287.692,179.636 289.701,182.941 288.902,186.218 C288.102,189.495 284.798,191.504 281.521,190.705" fill="#E9E9E9"/>
    <path d="M198.231,185.066 C194.954,184.267 192.945,180.963 193.744,177.685 C194.543,174.408 197.848,172.399 201.125,173.198 C204.403,173.997 206.411,177.302 205.612,180.579 C204.813,183.857 201.509,185.866 198.231,185.066" fill="#E9E9E9"/>
    <path d="M303.277,297.439 C299.999,296.64 297.99,293.335 298.789,290.058 C299.589,286.781 302.893,284.772 306.171,285.571 C309.448,286.37 311.457,289.674 310.658,292.952 C309.859,296.229 306.554,298.238 303.277,297.439" fill="#E9E9E9"/>
    <path d="M188.56,271.144 C185.282,270.345 183.273,267.041 184.072,263.763 C184.872,260.486 188.176,258.477 191.453,259.276 C194.731,260.075 196.74,263.38 195.941,266.657 C195.142,269.935 191.837,271.944 188.56,271.144" fill="#E9E9E9"/>
    <g clip-path="url(#Clip_5)">
      <path d="M89.124,203.433 C85.847,202.634 83.838,199.329 84.637,196.052 C85.436,192.775 88.74,190.766 92.018,191.565 C95.295,192.364 97.304,195.669 96.505,198.946 C95.706,202.223 92.401,204.232 89.124,203.433" fill="#E9E9E9"/>
      <path d="M11.93,-0 L397.157,145.977 L397.451,145.2 L14.274,-0 L11.93,-0" fill="#E9E9E9"/>
      <path d="M225.26,612.273 C225.26,612.175 225.273,612.079 225.276,611.981 L2.977,459.234 L0,452.177 L0,454.314 L2.306,459.78 L2.406,459.849 L225.299,613.005 C225.281,612.762 225.26,612.519 225.26,612.273" fill="#E9E9E9"/>
      <path d="M231.886,610.906 C228.81,609.52 225.194,610.89 223.808,613.965 C222.422,617.041 223.792,620.657 226.867,622.043 C229.943,623.429 233.559,622.059 234.945,618.984 C236.331,615.908 234.961,612.292 231.886,610.906" fill="#E9E9E9"/>
      <path d="M4.357,454.227 C2.928,453.583 1.385,453.541 -0,453.981 L-0,465.614 C2.916,466.544 6.129,465.163 7.417,462.305 C8.802,459.229 7.433,455.613 4.357,454.227" fill="#E9E9E9"/>
      <path d="M144.737,507.577 L144.42,502.686 C144.115,502.455 143.821,502.209 143.541,501.948 L143.734,504.925 L82.656,426.057 L80.003,423.987 L144.737,507.577" fill="#E9E9E9"/>
      <path d="M0,519.251 L16.692,566.62 L0,574.525 L0,575.443 L17.723,567.049 L17.599,566.696 L0,516.753 L0,519.251" fill="#E9E9E9"/>
      <path d="M0,426.362 L81.588,424.621 L80.552,423.813 L0,425.531 L0,426.362" fill="#E9E9E9"/>
      <path d="M0,689.462 L0,693.062 L6.998,722.571 L7.851,722.571 L0,689.462" fill="#E9E9E9"/>
    </g>
    <path d="M126.184,618.799 C124.193,613.542 118.316,610.894 113.058,612.885 C107.8,614.877 105.152,620.753 107.144,626.011 C109.135,631.269 115.012,633.917 120.27,631.925 C125.527,629.934 128.175,624.057 126.184,618.799" fill="#E9E9E9"/>
    <path d="M22.442,564.474 C21.247,561.32 17.721,559.731 14.567,560.926 C11.412,562.12 9.823,565.646 11.018,568.801 C12.213,571.956 15.739,573.545 18.893,572.35 C22.048,571.155 23.637,567.629 22.442,564.474" fill="#E9E9E9"/>
    <g clip-path="url(#Clip_6)">
      <path d="M148.246,501.152 C147.051,497.997 143.525,496.408 140.37,497.603 C137.216,498.798 135.627,502.324 136.822,505.478 C138.016,508.633 141.542,510.222 144.697,509.027 C147.852,507.832 149.441,504.306 148.246,501.152" fill="#E9E9E9"/>
      <path d="M0,181.847 C81.349,312.919 177.11,466.318 189.862,486.742 L0,325.991 L0,327.078 L193.381,490.808 L191.974,488.555 C190.2,485.715 86.723,320.008 0,180.276 L0,181.847" fill="#E9E9E9"/>
      <path d="M195.889,485.743 C192.968,484.056 189.232,485.056 187.544,487.976 C185.857,490.897 186.857,494.633 189.778,496.321 C192.699,498.008 196.435,497.008 198.122,494.087 C199.81,491.166 198.81,487.431 195.889,485.743" fill="#E9E9E9"/>
      <path d="M0,397.484 L0,399.264 L117.295,621.785 L118.029,621.398 L0,397.484" fill="#E9E9E9"/>
      <path d="M491.926,65.142 C485.47,69.865 484.066,78.927 488.789,85.382 C493.512,91.837 502.574,93.241 509.029,88.518 C515.484,83.795 516.888,74.734 512.165,68.279 C507.442,61.823 498.38,60.419 491.926,65.142" fill="#E9E9E9"/>
      <path d="M221.839,0 L497.421,77.365 L497.74,76.227 L226.208,0 L221.839,0" fill="#E9E9E9"/>
      <path d="M437.536,27.726 L280.891,-0 L276.127,-0 L437.101,28.492 L437.473,30.77 C437.733,30.657 437.995,30.549 438.263,30.454 L437.826,27.778 L437.536,27.726" fill="#E9E9E9"/>
      <path d="M438.469,19.206 C433.526,18.979 429.336,22.801 429.108,27.744 C428.881,32.686 432.703,36.877 437.645,37.104 C442.588,37.331 446.779,33.509 447.006,28.567 C447.233,23.625 443.411,19.434 438.469,19.206" fill="#E9E9E9"/>
      <path d="M58.88,-0 L56.163,-0 L462.949,184.109 L462.675,187.212 C463.052,187.15 463.431,187.097 463.812,187.062 L464.134,183.417 L463.772,183.253 L58.88,-0" fill="#E9E9E9"/>
      <path d="M467.834,172.427 C461.448,170.481 454.695,174.08 452.749,180.465 C450.803,186.85 454.402,193.604 460.787,195.549 C467.172,197.495 473.926,193.896 475.872,187.511 C477.817,181.126 474.219,174.372 467.834,172.427" fill="#E9E9E9"/>
      <path d="M552.599,-0 C552.858,2.57 554.739,4.793 557.401,5.361 C560.701,6.064 563.945,3.96 564.649,0.661 C564.696,0.44 564.729,0.22 564.751,-0 L552.599,-0" fill="#E9E9E9"/>
      <path d="M64.061,680.654 C62.398,675.284 56.697,672.278 51.326,673.94 C45.955,675.603 42.949,681.305 44.612,686.676 C46.275,692.046 51.976,695.052 57.347,693.39 C62.718,691.727 65.724,686.025 64.061,680.654" fill="#E9E9E9"/>
      <path d="M-0,558.974 L-0,560.995 L55.005,683.085 L55.761,682.745 L-0,558.974" fill="#E9E9E9"/>
      <path d="M403.515,198.191 C399.793,194.522 399.75,188.531 403.419,184.809 C407.088,181.087 413.079,181.044 416.801,184.713 C420.522,188.382 420.565,194.373 416.896,198.095 C413.228,201.816 407.236,201.859 403.515,198.191" fill="#9C9CA0"/>
      <path d="M40.015,141.332 L39.994,141.221 L-0,98.748 L-0,99.874 L39.277,141.586 L86.074,390.483 C79.173,377.729 43.157,311.171 -0,231.633 L-0,233.249 C47.134,320.122 85.586,391.203 86.57,393.021 L87.744,395.193 L40.015,141.332" fill="#9C9CA0"/>
      <path d="M-0,411.718 L-0,414.025 L38.759,523.131 L-0,515.25 L-0,516.037 L39.944,524.159 L-0,411.718" fill="#9C9CA0"/>
    </g>
    <path d="M30.429,523.583 C30.391,518.357 34.598,514.09 39.823,514.053 C45.049,514.015 49.316,518.221 49.353,523.447 C49.391,528.673 45.185,532.94 39.959,532.977 C34.733,533.015 30.466,528.809 30.429,523.583" fill="#9C9CA0"/>
    <path d="M176.438,192.853 C176.401,187.627 180.607,183.36 185.833,183.323 C191.059,183.285 195.325,187.492 195.363,192.717 C195.4,197.943 191.194,202.21 185.968,202.247 C180.742,202.285 176.475,198.079 176.438,192.853" fill="#9C9CA0"/>
    <path d="M82.499,394.894 C82.477,391.759 85.001,389.199 88.136,389.176 C91.272,389.154 93.832,391.677 93.854,394.813 C93.877,397.948 91.353,400.509 88.217,400.531 C85.082,400.553 82.522,398.03 82.499,394.894" fill="#9C9CA0"/>
    <g clip-path="url(#Clip_7)">
      <path d="M34.502,140.877 C34.48,137.742 37.004,135.182 40.139,135.159 C43.275,135.137 45.835,137.66 45.857,140.796 C45.879,143.932 43.356,146.492 40.22,146.514 C37.085,146.536 34.525,144.013 34.502,140.877" fill="#9C9CA0"/>
      <path d="M-0,47.909 L-0,48.884 L184.519,191.584 L184.99,190.974 L-0,47.909" fill="#9C9CA0"/>
      <path d="M0,231.333 L0,232.956 L24.938,279.081 L0,266.071 L0,266.941 L26.816,280.93 L0,231.333" fill="#9C9CA0"/>
      <path d="M-0,8.026 L-0,8.908 L206.873,123.264 L125.421,193.6 L-0,75.586 L-0,76.645 L125.145,194.4 L125.398,194.639 L208.216,123.124 L-0,8.026" fill="#9C9CA0"/>
      <path d="M254.043,0 L348.746,64.728 C332.51,59.892 236.264,31.236 130.788,0 L128.073,0 C243.499,34.18 348.579,65.483 350.891,66.172 L353.258,66.877 L255.411,0 L254.043,0" fill="#9C9CA0"/>
      <path d="M-0,25.809 L-0,26.732 L44.621,56.102 L-0,151.497 L-0,153.317 L45.462,56.126 L45.602,55.824 L-0,25.809" fill="#9C9CA0"/>
      <path d="M-0,45.25 L-0,46.218 L290.103,266.309 C290.19,266.055 290.285,265.804 290.386,265.556 L-0,45.25" fill="#9C9CA0"/>
      <path d="M5.552,0 L407.749,191.344 C408.547,191.367 409.332,191.448 410.095,191.606 L7.348,0 L5.552,0" fill="#9C9CA0"/>
    </g>
    <path d="M128.347,306.953 C124.626,303.284 124.583,297.292 128.251,293.571 C131.92,289.849 137.912,289.806 141.633,293.475 C145.355,297.144 145.398,303.135 141.729,306.857 C138.06,310.578 132.069,310.621 128.347,306.953" fill="#9C9CA0"/>
    <path d="M288.44,275.027 C285.165,271.798 285.128,266.526 288.356,263.251 C291.585,259.976 296.857,259.938 300.132,263.167 C303.407,266.395 303.445,271.667 300.216,274.942 C296.988,278.217 291.716,278.255 288.44,275.027" fill="#9C9CA0"/>
    <path d="M203.341,127.358 C201.108,125.157 201.083,121.562 203.284,119.329 C205.485,117.096 209.08,117.071 211.313,119.272 C213.546,121.473 213.572,125.068 211.37,127.301 C209.169,129.534 205.575,129.56 203.341,127.358" fill="#9C9CA0"/>
    <path d="M349.337,70.375 C347.104,68.173 347.079,64.579 349.28,62.346 C351.481,60.113 355.076,60.087 357.309,62.288 C359.542,64.489 359.568,68.084 357.366,70.317 C355.165,72.55 351.57,72.576 349.337,70.375" fill="#9C9CA0"/>
    <path d="M121.146,198.339 C118.913,196.137 118.887,192.542 121.089,190.309 C123.29,188.077 126.885,188.051 129.118,190.252 C131.351,192.453 131.376,196.048 129.175,198.281 C126.974,200.514 123.379,200.54 121.146,198.339" fill="#9C9CA0"/>
    <path d="M20.035,281.498 C17.802,279.297 17.776,275.702 19.977,273.469 C22.179,271.236 25.773,271.211 28.007,273.412 C30.24,275.613 30.265,279.208 28.064,281.441 C25.863,283.674 22.268,283.7 20.035,281.498" fill="#9C9CA0"/>
    <g clip-path="url(#Clip_8)">
      <path d="M39.058,60.016 C36.825,57.815 36.799,54.22 39.001,51.987 C41.202,49.754 44.797,49.729 47.03,51.93 C49.263,54.131 49.289,57.726 47.087,59.959 C44.886,62.192 41.291,62.218 39.058,60.016" fill="#9C9CA0"/>
      <path d="M0,130.92 L0,132.163 L133.621,300.996 L134.226,300.517 L0,130.92" fill="#9C9CA0"/>
      <path d="M133.36,0 L130.658,0 L227.86,28.979 L55.582,83.132 L-0,40.495 L-0,41.467 L55.271,83.866 L55.431,83.988 L230.496,28.959 L133.36,0" fill="#9C9CA0"/>
      <path d="M18.492,-0 L16.705,-0 L269.329,121.016 L161.262,121.903 L-0,18.551 L-0,19.466 L160.943,122.614 L161.039,122.676 L272.669,121.76 L18.492,-0" fill="#9C9CA0"/>
      <path d="M135.821,-0 L151.459,43.125 L46.951,-0 L44.928,-0 L151.973,44.172 L152.781,44.506 L136.642,-0 L135.821,-0" fill="#9C9CA0"/>
    </g>
    <path d="M226.102,34.156 C222.967,34.179 220.407,31.655 220.384,28.519 C220.362,25.384 222.885,22.824 226.021,22.801 C229.157,22.779 231.717,25.303 231.739,28.438 C231.762,31.574 229.238,34.134 226.102,34.156" fill="#9C9CA0"/>
    <path d="M149.742,47.951 C146.606,47.973 144.046,45.45 144.023,42.314 C144.001,39.179 146.525,36.619 149.66,36.596 C152.796,36.574 155.356,39.097 155.378,42.233 C155.401,45.368 152.877,47.928 149.742,47.951" fill="#9C9CA0"/>
    <path d="M269.906,125.443 C266.771,125.465 264.211,122.941 264.188,119.806 C264.166,116.67 266.689,114.11 269.825,114.088 C272.961,114.065 275.521,116.589 275.543,119.725 C275.566,122.86 273.042,125.42 269.906,125.443" fill="#9C9CA0"/>
    <path d="M160.533,127.74 C157.397,127.762 154.837,125.239 154.815,122.103 C154.792,118.967 157.316,116.407 160.451,116.385 C163.587,116.363 166.147,118.886 166.169,122.022 C166.192,125.157 163.668,127.717 160.533,127.74" fill="#9C9CA0"/>
    <g clip-path="url(#Clip_9)">
      <path d="M55.547,89.237 C52.412,89.26 49.852,86.736 49.829,83.601 C49.807,80.465 52.33,77.905 55.466,77.882 C58.601,77.86 61.161,80.384 61.184,83.519 C61.206,86.655 58.683,89.215 55.547,89.237" fill="#9C9CA0"/>
      <path d="M480.981,0 L480.97,0.02 L480.842,0 L474.442,0 L481.164,1.071 L481.517,1.127 L482.125,0 L480.981,0" fill="#9C9CA0"/>
      <path d="M474.718,-0 C474.379,3.291 476.414,6.461 479.702,7.432 C483.414,8.529 487.313,6.408 488.409,2.696 C488.676,1.794 488.749,0.881 488.659,-0 L474.718,-0" fill="#9C9CA0"/>
      <path d="M411.346,0 L518.862,64.546 C492.871,58.443 372.798,30.264 242.968,0 L236.783,0 C383.842,34.27 519.941,66.229 522.878,66.918 L527.213,67.936 L414.05,0 L411.346,0" fill="#9C9CA0"/>
    </g>
    <path d="M521.331,71.954 C518.441,69.422 518.15,65.027 520.682,62.136 C523.214,59.246 527.609,58.955 530.5,61.487 C533.39,64.019 533.681,68.414 531.149,71.305 C528.617,74.195 524.222,74.486 521.331,71.954" fill="#9C9CA0"/>
  </g>
</svg>
